<svg id="Icon_32px_Camera" data-name="Icon / 32px / Camera" xmlns="http://www.w3.org/2000/svg" viewBox="0 0 32 32">
  <defs>
    <style>
      .cls-1 {
        fill: #fa5e92;
      }

      .cls-2 {
        fill: #ddd;
        opacity: 0;
      }

      .cls-3, .cls-4, .cls-7 {
        fill: none;
      }

      .cls-3, .cls-4 {
        stroke-linecap: square;
        stroke-miterlimit: 10;
      }

      .cls-4 {
        stroke: #fff;
        stroke-width: 1.5px;
      }

      .cls-5, .cls-6 {
        stroke: none;
      }

      .cls-6 {
        fill: #fff;
      }
    </style>
  </defs>
  <g id="CameraIcon">
    <rect id="Icon_BG_Copy_3" data-name="Icon BG Copy 3" class="cls-1" width="32" height="32" rx="10"/>
    <g id="Camera" transform="translate(7 7)">
      <rect id="Rectangle" class="cls-2" width="18" height="18"/>
      <g id="Combined_Shape" data-name="Combined Shape" class="cls-3" transform="translate(0 1.5)">
        <path class="cls-5" d="M2.707,3a1.2,1.2,0,0,0,1.149-.855L4.243.855A1.2,1.2,0,0,1,5.393,0h7.214a1.2,1.2,0,0,1,1.149.855l.387,1.29A1.2,1.2,0,0,0,15.293,3H16.8A1.2,1.2,0,0,1,18,4.2v9.6A1.2,1.2,0,0,1,16.8,15H1.2A1.2,1.2,0,0,1,0,13.8V4.2A1.2,1.2,0,0,1,1.2,3Z"/>
        <path class="cls-6" d="M 5.616050720214844 1.5 L 5.293290138244629 2.575830459594727 C 4.948030471801758 3.726739883422852 3.908740043640137 4.5 2.707159996032715 4.5 L 1.5 4.5 L 1.5 13.5 L 16.5 13.5 L 16.5 4.5 L 15.29284000396729 4.5 C 14.09127044677734 4.5 13.0519905090332 3.726750373840332 12.70669937133789 2.575839996337891 L 12.38395214080811 1.5 L 5.616050720214844 1.5 M 5.392840385437012 0 L 12.6071605682373 0 C 13.1370906829834 0 13.60428047180176 0.347599983215332 13.75654983520508 0.8551797866821289 L 14.14344024658203 2.144820213317871 C 14.29572010040283 2.652400016784668 14.76290988922119 3 15.29284000396729 3 L 16.79999923706055 3 C 17.46273994445801 3 18 3.537260055541992 18 4.199999809265137 L 18 13.80000019073486 C 18 14.46273994445801 17.46273994445801 15 16.79999923706055 15 L 1.200000762939453 15 C 0.5372600555419922 15 0 14.46273994445801 0 13.80000019073486 L 0 4.199999809265137 C 0 3.537260055541992 0.5372600555419922 3 1.200000762939453 3 L 2.707159996032715 3 C 3.237090110778809 3 3.704279899597168 2.652400016784668 3.856550216674805 2.144820213317871 L 4.243450164794922 0.8551797866821289 C 4.395719528198242 0.347599983215332 4.862910270690918 0 5.392840385437012 0 Z"/>
      </g>
      <g id="Oval_2" data-name="Oval 2" class="cls-4" transform="translate(5.7 5.7)">
        <circle class="cls-5" cx="3.3" cy="3.3" r="3.3"/>
        <circle class="cls-7" cx="3.3" cy="3.3" r="2.55"/>
      </g>
    </g>
  </g>
</svg>
