<svg id="Icon_32px_Chat" data-name="Icon / 32px / Chat" xmlns="http://www.w3.org/2000/svg" xmlns:xlink="http://www.w3.org/1999/xlink" viewBox="0 0 32 32">
  <defs>
    <style>
      .cls-1 {
        fill: #ffcf56;
      }

      .cls-2, .cls-3, .cls-6, .cls-7 {
        fill: none;
      }

      .cls-2, .cls-3 {
        stroke-linecap: square;
        stroke-miterlimit: 10;
      }

      .cls-3 {
        stroke: #fff;
        stroke-width: 1.5px;
      }

      .cls-4, .cls-5 {
        stroke: none;
      }

      .cls-5 {
        fill: #fff;
      }

      .cls-6 {
        clip-path: url(#clip);
      }

      .cls-7 {
        clip-path: url(#clip-2);
      }
    </style>
    <clipPath id="clip">
      <use xlink:href="#fill"/>
    </clipPath>
    <clipPath id="clip-2">
      <use xlink:href="#fill-2"/>
    </clipPath>
  </defs>
  <g id="ChatIcon">
    <rect id="Icon_BG_Copy_5" data-name="Icon BG Copy 5" class="cls-1" width="32" height="32" rx="10"/>
    <g id="Chat" transform="translate(7 7)">
      <g id="Combined_Shape" data-name="Combined Shape" class="cls-2">
        <path class="cls-4" d="M0,9a9,9,0,1,1,17.1,3.928V16.2a.9.9,0,0,1-.9.9H12.928A9,9,0,0,1,0,9Z"/>
        <path class="cls-5" d="M 9 1.5 C 4.864489555358887 1.5 1.5 4.864489555358887 1.5 9 C 1.5 13.1355094909668 4.864489555358887 16.5 9 16.5 C 10.14802932739258 16.5 11.24896049499512 16.2479305267334 12.27221012115479 15.75080013275146 L 12.58261013031006 15.60000038146973 L 12.92770004272461 15.60000038146973 L 15.60000038146973 15.60000038146973 L 15.60000038146973 12.92770004272461 L 15.60000038146973 12.58261013031006 L 15.75080013275146 12.27221012115479 C 16.2479305267334 11.24896049499512 16.5 10.14802932739258 16.5 9 C 16.5 4.864489555358887 13.1355094909668 1.5 9 1.5 M 9 0 C 13.97069931030273 0 18 4.029299736022949 18 9 C 18 10.40832996368408 17.67666053771973 11.74074935913086 17.10000038146973 12.92770004272461 L 17.10000038146973 16.20000076293945 C 17.10000038146973 16.69680023193359 16.69680023193359 17.10000038146973 16.20000076293945 17.10000038146973 L 12.92770004272461 17.10000038146973 C 11.74074935913086 17.67666053771973 10.40832996368408 18 9 18 C 4.029299736022949 18 0 13.97069931030273 0 9 C 0 4.029299736022949 4.029299736022949 0 9 0 Z"/>
      </g>
      <g id="Rectangle_6" data-name="Rectangle 6" class="cls-3" transform="translate(6 7.2)">
        <rect id="fill" class="cls-4" width="5.4" height="0.9" rx="0.45"/>
        <path class="cls-6" d="M0,0.1499999761581421h5.400000095367432M4.650000095367432,0v0.8999999761581421M5.400000095367432,0.75h-5.400000095367432M0.75,0.8999999761581421v-0.8999999761581421"/>
      </g>
      <g id="Rectangle_6_Copy" data-name="Rectangle 6 Copy" class="cls-3" transform="translate(6 10.2)">
        <rect id="fill-2" class="cls-4" width="6.6" height="0.9" rx="0.45"/>
        <path class="cls-7" d="M0,0.1499999761581421h6.599999904632568M5.849999904632568,0v0.8999999761581421M6.599999904632568,0.75h-6.599999904632568M0.75,0.8999999761581421v-0.8999999761581421"/>
      </g>
    </g>
  </g>
</svg>
