<svg id="Icon_32px_Cloud" data-name="Icon / 32px / Cloud" xmlns="http://www.w3.org/2000/svg" viewBox="0 0 32 32">
  <defs>
    <style>
      .cls-1 {
        fill: #06b4fe;
      }

      .cls-2 {
        fill: #ddd;
        opacity: 0;
      }

      .cls-3 {
        fill: none;
        stroke-linecap: square;
        stroke-miterlimit: 10;
      }

      .cls-4, .cls-5 {
        stroke: none;
      }

      .cls-5 {
        fill: #fff;
      }
    </style>
  </defs>
  <g id="CloudIcon">
    <rect id="Icon_BG_Copy_4" data-name="Icon BG Copy 4" class="cls-1" width="32" height="32" rx="10"/>
    <g id="Cloud" transform="translate(7 7)">
      <rect id="Rectangle_3" data-name="Rectangle 3" class="cls-2" width="18" height="18"/>
      <g id="Combined_Shape" data-name="Combined Shape" class="cls-3" transform="translate(0 2.4)">
        <path class="cls-4" d="M4.8,13.5v0a4.95,4.95,0,0,1-.422-9.865A4.951,4.951,0,0,1,14.1,4.95c0,.152-.007.3-.021.452a4.05,4.05,0,0,1,.32,8.073V13.5Z"/>
        <path class="cls-5" d="M 14.09298706054688 12 L 14.23517990112305 11.98427963256836 C 15.52633953094482 11.84154033660889 16.5 10.75203990936279 16.5 9.449999809265137 C 16.5 8.064160346984863 15.41613960266113 6.944530010223389 14.03250026702881 6.901060104370117 L 12.44165992736816 6.851079940795898 L 12.58576011657715 5.265999794006348 C 12.59541034698486 5.159870147705078 12.60029983520508 5.053549766540527 12.60029983520508 4.949999809265137 C 12.60029983520508 3.047660112380981 11.05263996124268 1.5 9.150300025939941 1.5 C 7.602129936218262 1.5 6.234200000762939 2.540679931640625 5.823740005493164 4.030759811401367 L 5.554959774017334 5.006470203399658 L 4.549580097198486 5.122509956359863 C 2.81102991104126 5.323160171508789 1.5 6.79665994644165 1.5 8.550000190734863 C 1.5 9.453510284423828 1.846619963645935 10.30757999420166 2.476020097732544 10.95487976074219 C 3.104249954223633 11.60099029541016 3.945339918136597 11.97155952453613 4.84434986114502 11.99833011627197 L 4.897555828094482 12 L 14.09298706054688 12 M 14.39999961853027 13.5 L 4.799699783325195 13.5 L 4.799699783325195 13.49767017364502 C 2.134989976882935 13.41831016540527 0 11.23396968841553 0 8.550000190734863 C 0 6.009300231933594 1.913400053977966 3.916800022125244 4.377600193023682 3.632400035858154 C 4.954500198364258 1.538100004196167 6.872399806976318 -8.881784197001252e-16 9.150300025939941 -8.881784197001252e-16 C 11.88360023498535 -8.881784197001252e-16 14.10029983520508 2.215800046920776 14.10029983520508 4.949999809265137 C 14.10029983520508 5.102099895477295 14.09309959411621 5.253300189971924 14.07960033416748 5.401800155639648 C 16.25670051574707 5.470200061798096 18 7.256700038909912 18 9.449999809265137 C 18 11.5344295501709 16.42482948303223 13.25135040283203 14.39999961853027 13.47519969940186 L 14.39999961853027 13.5 Z"/>
      </g>
    </g>
  </g>
</svg>
