<svg id="Icon_32px_Heart" data-name="Icon / 32px / Heart" xmlns="http://www.w3.org/2000/svg" viewBox="0 0 32 32">
  <defs>
    <style>
      .cls-1 {
        fill: #7a69e6;
      }

      .cls-2 {
        fill: #ddd;
        opacity: 0;
      }

      .cls-3 {
        fill: none;
        stroke-linecap: square;
        stroke-miterlimit: 10;
      }

      .cls-4, .cls-5 {
        stroke: none;
      }

      .cls-5 {
        fill: #fff;
      }
    </style>
  </defs>
  <g id="HeartIcon">
    <rect id="Icon_BG" data-name="Icon BG" class="cls-1" width="32" height="32" rx="10"/>
    <g id="Heart" transform="translate(7 7)">
      <rect id="Rectangle" class="cls-2" width="18" height="18"/>
      <g id="Heart_" data-name="Heart " class="cls-3" transform="translate(0 0.9)">
        <path class="cls-4" d="M8.852,16.456,1.519,9a5.334,5.334,0,0,1,0-7.456,5.126,5.126,0,0,1,7.334,0,5.126,5.126,0,0,1,7.334,0,5.334,5.334,0,0,1,0,7.456Z"/>
        <path class="cls-5" d="M 8.852458953857422 14.31677055358887 L 15.11668872833252 7.948143005371094 C 16.56807899475098 6.47255277633667 16.56807899475098 4.071602821350098 15.11668872833252 2.596012830734253 C 14.42149925231934 1.889242887496948 13.49904918670654 1.500002980232239 12.51926898956299 1.500002980232239 C 11.53948879241943 1.500002980232239 10.61703872680664 1.889242887496948 9.921849250793457 2.596012830734253 L 8.852458953857422 3.683212995529175 L 7.783069133758545 2.596012830734253 C 7.087879180908203 1.889242887496948 6.16542911529541 1.500002980232239 5.185648918151855 1.500002980232239 C 4.205868721008301 1.500002980232239 3.283418893814087 1.889242887496948 2.588228940963745 2.596012830734253 C 1.136838912963867 4.071602821350098 1.136838912963867 6.47255277633667 2.588228940963745 7.948143005371094 L 8.852458953857422 14.31677055358887 M 8.852458953857422 16.45584297180176 L 1.518839001655579 9.000002861022949 C -0.5062810182571411 6.941123008728027 -0.5062810182571411 3.603032827377319 1.518839001655579 1.544152975082397 C 2.5314040184021 0.5147179365158081 3.858528852462769 4.348754885086237e-07 5.185652732849121 4.348754885086237e-07 C 6.512776374816895 4.348754885086237e-07 7.839899063110352 0.5147179365158081 8.852458953857422 1.544152975082397 C 9.865018844604492 0.5147179365158081 11.19214153289795 4.348754885086237e-07 12.51926517486572 4.348754885086237e-07 C 13.8463888168335 4.348754885086237e-07 15.1735143661499 0.5147179365158081 16.18607902526855 1.544152975082397 C 18.2111988067627 3.603032827377319 18.2111988067627 6.941123008728027 16.18607902526855 9.000002861022949 L 8.852458953857422 16.45584297180176 Z"/>
      </g>
    </g>
  </g>
</svg>
