<svg id="Icons_Menu_Cards" data-name="Icons / Menu / Cards" xmlns="http://www.w3.org/2000/svg" viewBox="0 0 128 128">
  <defs>
    <style>
      .cls-1 {
        fill: none;
      }

      .cls-2 {
        fill: #7755fe;
      }

      .cls-3 {
        fill: #a38cfb;
      }
    </style>
  </defs>
  <g id="My_Cards" data-name="My Cards">
    <rect id="Rectangle" class="cls-1" width="128" height="128"/>
    <g id="Credit_cards" data-name="Credit cards" transform="translate(0 8)">
      <path id="Shape" class="cls-2" d="M14.822,84A8.044,8.044,0,0,1,6.89,76.871l-4.633-38.4,105.21-13.145-.672-5.566,5.3,43.964a8.116,8.116,0,0,1-6.979,9.053L15.813,83.937A8.02,8.02,0,0,1,14.822,84ZM1.037,28.373h0l-.977-8.1A8.116,8.116,0,0,1,7.039,11.22L96.347.062a7.977,7.977,0,0,1,8.924,7.066l.977,8.1L1.038,28.372Z" transform="translate(0.92 0.737)"/>
      <path id="Shape-2" data-name="Shape" class="cls-3" d="M106,8.12A8.064,8.064,0,0,0,97.989,0H8.011A8.067,8.067,0,0,0,0,8.12V65.143a8.065,8.065,0,0,0,8.011,8.12H97.989A8.067,8.067,0,0,0,106,65.143Z" transform="translate(22 42.737)"/>
      <path id="Shape-3" data-name="Shape" class="cls-2" d="M70,36.632H44a3.945,3.945,0,0,1-2.829-1.186A4.09,4.09,0,0,1,44,28.491H70a3.941,3.941,0,0,1,2.828,1.186A4.09,4.09,0,0,1,70,36.632Zm-40,0H4a3.945,3.945,0,0,1-2.829-1.186A4.09,4.09,0,0,1,4,28.491H30a3.942,3.942,0,0,1,2.829,1.186A4.09,4.09,0,0,1,30,36.632ZM16,16.281H4A3.945,3.945,0,0,1,1.171,15.1,4.074,4.074,0,0,1,0,12.215V4.066A4.078,4.078,0,0,1,1.166,1.191,3.941,3.941,0,0,1,4,0H16a3.943,3.943,0,0,1,2.828,1.185A4.074,4.074,0,0,1,20,4.066v8.149a4.079,4.079,0,0,1-1.165,2.875A3.939,3.939,0,0,1,16,16.281Z" transform="translate(34 63.088)"/>
    </g>
  </g>
</svg>
