<svg id="Icon_32px_Shield" data-name="Icon / 32px / Shield" xmlns="http://www.w3.org/2000/svg" viewBox="0 0 32 32">
  <defs>
    <style>
      .cls-1 {
        fill: #f98d5e;
      }

      .cls-2, .cls-3 {
        fill: none;
        stroke-miterlimit: 10;
      }

      .cls-2 {
        stroke-linecap: square;
      }

      .cls-3 {
        stroke: #fff;
        stroke-linecap: round;
        stroke-width: 1.5px;
      }

      .cls-4, .cls-5 {
        stroke: none;
      }

      .cls-5 {
        fill: #fff;
      }
    </style>
  </defs>
  <g id="Icon_32px_Shield-2" data-name="Icon / 32px / Shield">
    <rect id="Icon_BG_Copy" data-name="Icon BG Copy" class="cls-1" width="32" height="32" rx="10"/>
    <g id="Shield" transform="translate(7 7)">
      <g id="Path_3" data-name="Path 3" class="cls-2" transform="translate(0 0)">
        <path class="cls-4" d="M9,0s3.6,0,9,3L9.514,17.143a.6.6,0,0,1-1.029,0L0,3C5.4,0,9,0,9,0Z"/>
        <path class="cls-5" d="M 9 1.500165939331055 C 8.90526008605957 1.502731323242188 8.089408874511719 1.534082412719727 6.742030143737793 1.865785598754883 C 5.665055274963379 2.130911827087402 4.059365272521973 2.637578964233398 2.104878425598145 3.592653274536133 L 9 15.0845308303833 L 15.89512157440186 3.592653274536133 C 13.94063377380371 2.637578964233398 12.33494472503662 2.130911827087402 11.25796985626221 1.865785598754883 C 9.910591125488281 1.534082412719727 9.09473991394043 1.502731323242188 9 1.500165939331055 M 9 -3.814697265625e-06 C 9 -3.814697265625e-06 12.60000038146973 -3.814697265625e-06 18 2.999995231628418 L 9.514499664306641 17.14250564575195 C 9.397974967956543 17.33670616149902 9.19898796081543 17.43380546569824 9 17.43380546569824 C 8.80101203918457 17.43380546569824 8.602025032043457 17.33670616149902 8.485500335693359 17.14250564575195 L 0 2.999995231628418 C 5.399999618530273 -3.814697265625e-06 9 -3.814697265625e-06 9 -3.814697265625e-06 Z"/>
      </g>
      <path id="Path_4" data-name="Path 4" class="cls-3" d="M0,2.55,1.877,4.159A.3.3,0,0,0,2.3,4.132L6,0" transform="translate(6 5.4)"/>
    </g>
  </g>
</svg>
