<svg xmlns="http://www.w3.org/2000/svg" xmlns:xlink="http://www.w3.org/1999/xlink" viewBox="0 0 213.121 59.809">
  <defs>
    <style>
      .cls-1 {
        fill: #fff;
      }

      .cls-2 {
        clip-path: url(#clip-path);
      }

      .cls-3 {
        fill: #f5f5f5;
      }
    </style>
    <clipPath id="clip-path">
      <path id="Lightning_Bolt" data-name="Lightning Bolt" class="cls-1" d="M7.243,54.853a4.459,4.459,0,0,1-3.982-6.467L18.45,18.263a4.865,4.865,0,0,1,9.209,2.19v14.09a2.027,2.027,0,0,0,2.027,2.027h8.763a4.459,4.459,0,0,1,3.931,6.566l-15.9,29.68a4.865,4.865,0,0,1-9.153-2.3V56.88A2.027,2.027,0,0,0,15.3,54.853Z" transform="translate(-1.899 -13)"/>
    </clipPath>
  </defs>
  <g id="Logo_White_Logo" data-name="Logo / White Logo" transform="translate(-0.879 -2.581)">
    <g id="White_Logo" data-name="White Logo">
      <g id="Logo_Icon_White" data-name="Logo / Icon/ White">
        <g id="Logo_Icon" data-name="Logo Icon">
          <path id="Lightning_Bolt-2" data-name="Lightning Bolt" class="cls-1" d="M7.243,54.853a4.459,4.459,0,0,1-3.982-6.467L18.45,18.263a4.865,4.865,0,0,1,9.209,2.19v14.09a2.027,2.027,0,0,0,2.027,2.027h8.763a4.459,4.459,0,0,1,3.931,6.566l-15.9,29.68a4.865,4.865,0,0,1-9.153-2.3V56.88A2.027,2.027,0,0,0,15.3,54.853Z" transform="translate(-1.899 -13)"/>
          <g id="Logo_Icon-2" data-name="Logo Icon" class="cls-2">
            <ellipse id="Oval_Copy" data-name="Oval Copy" class="cls-3" cx="40.525" cy="40.632" rx="40.525" ry="40.632" transform="translate(-37.662 -23.361)"/>
            <ellipse id="Oval" class="cls-1" cx="25.227" cy="25.293" rx="25.227" ry="25.293" transform="translate(-23.073 -17.063)"/>
          </g>
        </g>
      </g>
      <path id="spendo" class="cls-1" d="M23.189,46.239c-1.17,0-2.43-.31-2.43-.992V23.267A12.344,12.344,0,0,1,33.08,10.978,12.319,12.319,0,0,1,45.4,23.267,12.281,12.281,0,0,1,33.08,35.555a12.4,12.4,0,0,1-7.461-2.5v12.19C25.619,45.929,24.359,46.239,23.189,46.239Zm9.89-30.415a7.46,7.46,0,0,0-7.461,7.442v.049a7.454,7.454,0,1,0,7.461-7.491ZM8.885,35.408A11.691,11.691,0,0,1,3.7,34.221,7.172,7.172,0,0,1,.1,30.463a1.565,1.565,0,0,1-.1-.686c0-.96,2.384-1.661,3.624-1.661.392,0,.65.067.744.193a5.049,5.049,0,0,0,4.418,2.3c2.009,0,3.229-.9,3.435-2.536v-.01c0-1.462-1.333-2.31-4.074-2.595C6.237,25.25,0,24.075,0,18.126a6.964,6.964,0,0,1,2.528-5.508A8.956,8.956,0,0,1,8.3,10.635a10.622,10.622,0,0,1,4.712,1.127l.075.037a10.1,10.1,0,0,1,2.265,1.461,4.447,4.447,0,0,1,1.734,3.349c-.059.737-1.565,1.178-2.987,1.178-.9,0-1.568-.184-1.774-.493a3.112,3.112,0,0,0-1.8-1.419A7.118,7.118,0,0,0,8.2,15.483c-2.223,0-3.387,1.354-3.387,2.692,0,1.9,1.508,2.1,3.594,2.385a11.467,11.467,0,0,1,5.781,1.973,7.417,7.417,0,0,1,2.9,5.531,8.036,8.036,0,0,1-1.411,4.2A6.883,6.883,0,0,1,13.19,34.46,9.187,9.187,0,0,1,8.885,35.408Zm136.438-.05a12.291,12.291,0,1,1,12.32-12.288A12.252,12.252,0,0,1,145.323,35.358Zm0-19.729a7.46,7.46,0,0,0-7.461,7.441,7.461,7.461,0,0,0,14.922,0A7.46,7.46,0,0,0,145.323,15.629ZM61.347,35.358H61.1A12.318,12.318,0,0,1,48.783,23.071,12.281,12.281,0,0,1,61.1,10.783a12.786,12.786,0,0,1,8.388,3.151,11.791,11.791,0,0,1,3.933,9.137,2.359,2.359,0,0,1-.712,1.695,2.468,2.468,0,0,1-1.742.7H54.035a7.571,7.571,0,0,0,2.688,3.622,7.387,7.387,0,0,0,4.38,1.42A9.677,9.677,0,0,0,66.6,28.9a.5.5,0,0,1,.276-.083c.691,0,1.578,1.368,1.942,2.6.275.927.218,1.6-.157,1.843A11.878,11.878,0,0,1,61.347,35.358ZM61.1,15.629a7.426,7.426,0,0,0-4.38,1.414,7.522,7.522,0,0,0-2.688,3.579H68.221a6.719,6.719,0,0,0-2.84-3.782A8.019,8.019,0,0,0,61.1,15.629Zm56.245,19.632a12.319,12.319,0,0,1-12.321-12.289,12.281,12.281,0,0,1,12.321-12.288,12.393,12.393,0,0,1,7.461,2.5V.992c0-.681,1.259-.992,2.429-.992s2.43.31,2.43.992V22.972a12.344,12.344,0,0,1-12.32,12.289Zm0-19.73a7.46,7.46,0,0,0-7.462,7.441,7.479,7.479,0,0,0,7.462,7.441,7.46,7.46,0,0,0,7.461-7.441v-.049A7.435,7.435,0,0,0,117.348,15.531ZM99.117,33.939c-1.17,0-2.43-.322-2.43-1.028V23.071a7.461,7.461,0,0,0-14.922,0v9.841c0,.706-1.26,1.028-2.43,1.028s-2.43-.322-2.43-1.028V23.071a12.321,12.321,0,0,1,24.642,0v9.841C101.547,33.617,100.287,33.939,99.117,33.939Z" transform="translate(56.356 9.083)"/>
    </g>
  </g>
</svg>
